<svg xmlns="http://www.w3.org/2000/svg" viewBox="6163 -17878 50 40.506">
  <defs>
    <style>
      .cls-1 {
        fill: #fff;
        fill-rule: evenodd;
      }
    </style>
  </defs>
  <path id="icone-lista" class="cls-1" d="M1383.488,3592.61a16.518,16.518,0,0,0-4.312-11.18h-.017a8.358,8.358,0,0,0-1.841.807c-.513.327-1.093.773-1.429,1.042a13.014,13.014,0,1,1-4.917-3.018,16.729,16.729,0,0,1,2.933-2.488c.084-.051.168-.093.244-.134a16.665,16.665,0,1,0,9.338,14.97Zm11.784-11.776a16.57,16.57,0,0,0-9.271-4.7h.008v-.185l3.413-4.531v-.209l-2.875-2.429h-6.085l-3.01,2.412v.109l3.539,4.648v.185h0a16.659,16.659,0,0,0-9.868,27.646,10.125,10.125,0,0,0,2.135-1.042c.529-.362.9-.639,1.135-.824a12.984,12.984,0,1,1,4.968,3.026h0a19.655,19.655,0,0,1-1.664,1.514c-.412.311-1.11.789-1.581,1.109a16.664,16.664,0,0,0,19.156-26.73Z" transform="translate(4812.842 -21446.78)"/>
</svg>
